<mxfile host="Electron" modified="2024-11-12T19:15:44.975Z" agent="Mozilla/5.0 (Windows NT 10.0; Win64; x64) AppleWebKit/537.36 (KHTML, like Gecko) draw.io/23.1.5 Chrome/120.0.6099.109 Electron/28.1.0 Safari/537.36" etag="Hmaemq4en5BeWXPEkFyS" version="23.1.5" type="device">
  <diagram name="Page-1" id="OiCi1RUJliB-XmCjYWHK">
    <mxGraphModel dx="2782" dy="683" grid="0" gridSize="10" guides="1" tooltips="1" connect="1" arrows="1" fold="1" page="1" pageScale="1" pageWidth="850" pageHeight="1100" math="0" shadow="0">
      <root>
        <mxCell id="0" />
        <mxCell id="1" parent="0" />
        <mxCell id="sOnCqrmDb3nC8XlJDK9Z-1" value="VECTOR DB" style="shape=cylinder3;whiteSpace=wrap;html=1;boundedLbl=1;backgroundOutline=1;size=15;fillColor=#d5e8d4;strokeColor=#82b366;" parent="1" vertex="1">
          <mxGeometry x="140" y="430" width="240" height="60" as="geometry" />
        </mxCell>
        <mxCell id="0rn9-5FddlvMtnh7olx--13" style="edgeStyle=orthogonalEdgeStyle;rounded=0;orthogonalLoop=1;jettySize=auto;html=1;exitX=0;exitY=0;exitDx=0;exitDy=0;entryX=1;entryY=0.5;entryDx=0;entryDy=0;" edge="1" parent="1" source="sOnCqrmDb3nC8XlJDK9Z-5" target="0rn9-5FddlvMtnh7olx--12">
          <mxGeometry relative="1" as="geometry" />
        </mxCell>
        <mxCell id="sOnCqrmDb3nC8XlJDK9Z-5" value="HELM" style="rhombus;whiteSpace=wrap;html=1;" parent="1" vertex="1">
          <mxGeometry x="710" y="520" width="80" height="80" as="geometry" />
        </mxCell>
        <mxCell id="sOnCqrmDb3nC8XlJDK9Z-20" value="NVIDIA A100" style="shape=process;whiteSpace=wrap;html=1;backgroundOutline=1;" parent="1" vertex="1">
          <mxGeometry x="100" y="550" width="120" height="20" as="geometry" />
        </mxCell>
        <mxCell id="0rn9-5FddlvMtnh7olx--1" value="NVIDIA A100" style="shape=process;whiteSpace=wrap;html=1;backgroundOutline=1;" vertex="1" parent="1">
          <mxGeometry x="220" y="550" width="120" height="20" as="geometry" />
        </mxCell>
        <mxCell id="0rn9-5FddlvMtnh7olx--2" value="NVIDIA A100" style="shape=process;whiteSpace=wrap;html=1;backgroundOutline=1;" vertex="1" parent="1">
          <mxGeometry x="340" y="550" width="120" height="20" as="geometry" />
        </mxCell>
        <mxCell id="0rn9-5FddlvMtnh7olx--3" value="NVIDIA A100" style="shape=process;whiteSpace=wrap;html=1;backgroundOutline=1;" vertex="1" parent="1">
          <mxGeometry x="460" y="550" width="120" height="20" as="geometry" />
        </mxCell>
        <mxCell id="0rn9-5FddlvMtnh7olx--4" value="NVIDIA A100" style="shape=process;whiteSpace=wrap;html=1;backgroundOutline=1;" vertex="1" parent="1">
          <mxGeometry x="100" y="570" width="120" height="20" as="geometry" />
        </mxCell>
        <mxCell id="0rn9-5FddlvMtnh7olx--5" value="NVIDIA A100" style="shape=process;whiteSpace=wrap;html=1;backgroundOutline=1;" vertex="1" parent="1">
          <mxGeometry x="220" y="570" width="120" height="20" as="geometry" />
        </mxCell>
        <mxCell id="0rn9-5FddlvMtnh7olx--6" value="NVIDIA A100" style="shape=process;whiteSpace=wrap;html=1;backgroundOutline=1;" vertex="1" parent="1">
          <mxGeometry x="340" y="570" width="120" height="20" as="geometry" />
        </mxCell>
        <mxCell id="0rn9-5FddlvMtnh7olx--7" value="NVIDIA A100" style="shape=process;whiteSpace=wrap;html=1;backgroundOutline=1;" vertex="1" parent="1">
          <mxGeometry x="460" y="570" width="120" height="20" as="geometry" />
        </mxCell>
        <mxCell id="0rn9-5FddlvMtnh7olx--8" value="NVIDIA A100" style="shape=process;whiteSpace=wrap;html=1;backgroundOutline=1;" vertex="1" parent="1">
          <mxGeometry x="580" y="570" width="120" height="20" as="geometry" />
        </mxCell>
        <mxCell id="0rn9-5FddlvMtnh7olx--9" value="NVIDIA A100" style="shape=process;whiteSpace=wrap;html=1;backgroundOutline=1;" vertex="1" parent="1">
          <mxGeometry x="580" y="550" width="120" height="20" as="geometry" />
        </mxCell>
        <mxCell id="0rn9-5FddlvMtnh7olx--12" value="K8S" style="shape=process;whiteSpace=wrap;html=1;backgroundOutline=1;fillColor=#fff2cc;strokeColor=#d6b656;" vertex="1" parent="1">
          <mxGeometry x="100" y="530" width="600" height="20" as="geometry" />
        </mxCell>
        <mxCell id="0rn9-5FddlvMtnh7olx--14" value="StorageClass/Persistant Volume" style="shape=cylinder3;whiteSpace=wrap;html=1;boundedLbl=1;backgroundOutline=1;size=15;fillColor=#dae8fc;strokeColor=#6c8ebf;" vertex="1" parent="1">
          <mxGeometry x="440" y="430" width="240" height="60" as="geometry" />
        </mxCell>
        <mxCell id="0rn9-5FddlvMtnh7olx--15" value="1 Petabyte" style="shape=cylinder3;whiteSpace=wrap;html=1;boundedLbl=1;backgroundOutline=1;size=15;fillColor=#dae8fc;strokeColor=#6c8ebf;" vertex="1" parent="1">
          <mxGeometry x="440" y="400" width="240" height="60" as="geometry" />
        </mxCell>
      </root>
    </mxGraphModel>
  </diagram>
</mxfile>
